<mxfile host="app.diagrams.net" modified="2024-02-17T20:48:42.847Z" agent="Mozilla/5.0 (Macintosh; Intel Mac OS X 10_15_7) AppleWebKit/537.36 (KHTML, like Gecko) Chrome/121.0.0.0 Safari/537.36" etag="DAYHJidfHfi7MBxyqkRx" version="23.1.5" type="device">
  <diagram name="Page-1" id="2hCLl2hZ-xXugIpH-_2p">
    <mxGraphModel dx="1811" dy="1725" grid="1" gridSize="10" guides="1" tooltips="1" connect="1" arrows="1" fold="1" page="1" pageScale="1" pageWidth="850" pageHeight="1100" math="0" shadow="0">
      <root>
        <mxCell id="0" />
        <mxCell id="1" parent="0" />
        <mxCell id="rSsmFgzWFO_JdAn4o0Gd-1" value="&lt;i&gt;Pokemon&lt;/i&gt;" style="swimlane;fontStyle=1;align=center;verticalAlign=top;childLayout=stackLayout;horizontal=1;startSize=26;horizontalStack=0;resizeParent=1;resizeParentMax=0;resizeLast=0;collapsible=1;marginBottom=0;whiteSpace=wrap;html=1;" parent="1" vertex="1">
          <mxGeometry x="170" y="100" width="240" height="300" as="geometry">
            <mxRectangle x="220" y="160" width="90" height="30" as="alternateBounds" />
          </mxGeometry>
        </mxCell>
        <mxCell id="rSsmFgzWFO_JdAn4o0Gd-2" value="- lastDefense: Skill&lt;br&gt;- maxHealth: int&lt;br&gt;- health: int&lt;br&gt;- rng: Random&lt;br&gt;+ DEFAULT_MAX_HEALTH: int&amp;nbsp;" style="text;strokeColor=none;fillColor=none;align=left;verticalAlign=top;spacingLeft=4;spacingRight=4;overflow=hidden;rotatable=0;points=[[0,0.5],[1,0.5]];portConstraint=eastwest;whiteSpace=wrap;html=1;" parent="rSsmFgzWFO_JdAn4o0Gd-1" vertex="1">
          <mxGeometry y="26" width="240" height="84" as="geometry" />
        </mxCell>
        <mxCell id="rSsmFgzWFO_JdAn4o0Gd-3" value="" style="line;strokeWidth=1;fillColor=none;align=left;verticalAlign=middle;spacingTop=-1;spacingLeft=3;spacingRight=3;rotatable=0;labelPosition=right;points=[];portConstraint=eastwest;strokeColor=inherit;" parent="rSsmFgzWFO_JdAn4o0Gd-1" vertex="1">
          <mxGeometry y="110" width="240" height="10" as="geometry" />
        </mxCell>
        <mxCell id="rSsmFgzWFO_JdAn4o0Gd-4" value="+ Pokemon(Integer seed)&lt;br&gt;+ setDefense(Skill defense): void&lt;br&gt;+ removeDefense(): void&lt;br&gt;+ chooseAttack(): Skill&lt;br&gt;+ chooseDefense(): Skill&lt;br&gt;+ shouldAttack(): boolean&lt;br&gt;+ isFainted(): boolean&lt;br&gt;+ setSeed(Integer seed): void&lt;br&gt;+ battle(Object pokemon, int damage): void&lt;br&gt;&lt;i&gt;+ getAttackSkill(): ISkillContainer&amp;nbsp;&lt;br&gt;+ getDefenseSkill(): ISkillContainer&lt;br&gt;+ getName(): String&lt;/i&gt;" style="text;strokeColor=none;fillColor=none;align=left;verticalAlign=top;spacingLeft=4;spacingRight=4;overflow=hidden;rotatable=0;points=[[0,0.5],[1,0.5]];portConstraint=eastwest;whiteSpace=wrap;html=1;" parent="rSsmFgzWFO_JdAn4o0Gd-1" vertex="1">
          <mxGeometry y="120" width="240" height="180" as="geometry" />
        </mxCell>
        <mxCell id="rSsmFgzWFO_JdAn4o0Gd-5" value="Skill" style="swimlane;fontStyle=1;align=center;verticalAlign=top;childLayout=stackLayout;horizontal=1;startSize=26;horizontalStack=0;resizeParent=1;resizeParentMax=0;resizeLast=0;collapsible=1;marginBottom=0;whiteSpace=wrap;html=1;" parent="1" vertex="1">
          <mxGeometry x="520" y="100" width="180" height="130" as="geometry" />
        </mxCell>
        <mxCell id="rSsmFgzWFO_JdAn4o0Gd-6" value="- name: String&lt;br&gt;- power: int" style="text;strokeColor=none;fillColor=none;align=left;verticalAlign=top;spacingLeft=4;spacingRight=4;overflow=hidden;rotatable=0;points=[[0,0.5],[1,0.5]];portConstraint=eastwest;whiteSpace=wrap;html=1;" parent="rSsmFgzWFO_JdAn4o0Gd-5" vertex="1">
          <mxGeometry y="26" width="180" height="44" as="geometry" />
        </mxCell>
        <mxCell id="rSsmFgzWFO_JdAn4o0Gd-7" value="" style="line;strokeWidth=1;fillColor=none;align=left;verticalAlign=middle;spacingTop=-1;spacingLeft=3;spacingRight=3;rotatable=0;labelPosition=right;points=[];portConstraint=eastwest;strokeColor=inherit;" parent="rSsmFgzWFO_JdAn4o0Gd-5" vertex="1">
          <mxGeometry y="70" width="180" height="8" as="geometry" />
        </mxCell>
        <mxCell id="rSsmFgzWFO_JdAn4o0Gd-8" value="+ Skill(String name, int power)&lt;br&gt;+ getPower(): int&lt;br&gt;+ getName(): string" style="text;strokeColor=none;fillColor=none;align=left;verticalAlign=top;spacingLeft=4;spacingRight=4;overflow=hidden;rotatable=0;points=[[0,0.5],[1,0.5]];portConstraint=eastwest;whiteSpace=wrap;html=1;" parent="rSsmFgzWFO_JdAn4o0Gd-5" vertex="1">
          <mxGeometry y="78" width="180" height="52" as="geometry" />
        </mxCell>
        <mxCell id="rSsmFgzWFO_JdAn4o0Gd-9" value="Battle" style="swimlane;fontStyle=1;align=center;verticalAlign=top;childLayout=stackLayout;horizontal=1;startSize=26;horizontalStack=0;resizeParent=1;resizeParentMax=0;resizeLast=0;collapsible=1;marginBottom=0;whiteSpace=wrap;html=1;" parent="1" vertex="1">
          <mxGeometry x="510" y="270" width="290" height="160" as="geometry">
            <mxRectangle x="510" y="270" width="140" height="30" as="alternateBounds" />
          </mxGeometry>
        </mxCell>
        <mxCell id="rSsmFgzWFO_JdAn4o0Gd-10" value="- p1: Pokemon&lt;br&gt;- p2: Pokemon&lt;br&gt;- isP1sTurn: boolean" style="text;strokeColor=none;fillColor=none;align=left;verticalAlign=top;spacingLeft=4;spacingRight=4;overflow=hidden;rotatable=0;points=[[0,0.5],[1,0.5]];portConstraint=eastwest;whiteSpace=wrap;html=1;" parent="rSsmFgzWFO_JdAn4o0Gd-9" vertex="1">
          <mxGeometry y="26" width="290" height="54" as="geometry" />
        </mxCell>
        <mxCell id="rSsmFgzWFO_JdAn4o0Gd-11" value="" style="line;strokeWidth=1;fillColor=none;align=left;verticalAlign=middle;spacingTop=-1;spacingLeft=3;spacingRight=3;rotatable=0;labelPosition=right;points=[];portConstraint=eastwest;strokeColor=inherit;" parent="rSsmFgzWFO_JdAn4o0Gd-9" vertex="1">
          <mxGeometry y="80" width="290" height="8" as="geometry" />
        </mxCell>
        <mxCell id="rSsmFgzWFO_JdAn4o0Gd-12" value="+ Battle(Pokemon p1, Pokemon p2)&lt;br&gt;+ startBattle(): void&amp;nbsp;&lt;br&gt;- announceWinner(Pokemon p1, Pokemon p2): void&lt;br&gt;+ doTurn(Pokemon main, Pokemon other): void" style="text;strokeColor=none;fillColor=none;align=left;verticalAlign=top;spacingLeft=4;spacingRight=4;overflow=hidden;rotatable=0;points=[[0,0.5],[1,0.5]];portConstraint=eastwest;whiteSpace=wrap;html=1;" parent="rSsmFgzWFO_JdAn4o0Gd-9" vertex="1">
          <mxGeometry y="88" width="290" height="72" as="geometry" />
        </mxCell>
        <mxCell id="rSsmFgzWFO_JdAn4o0Gd-23" value="" style="endArrow=none;endFill=0;endSize=8;html=1;rounded=0;" parent="1" edge="1">
          <mxGeometry width="160" relative="1" as="geometry">
            <mxPoint x="410" y="150" as="sourcePoint" />
            <mxPoint x="520" y="150" as="targetPoint" />
          </mxGeometry>
        </mxCell>
        <mxCell id="MCqwjviWJ43rbgQTnmE4-22" value="uses" style="edgeLabel;html=1;align=center;verticalAlign=middle;resizable=0;points=[];" vertex="1" connectable="0" parent="rSsmFgzWFO_JdAn4o0Gd-23">
          <mxGeometry x="-0.1182" y="-1" relative="1" as="geometry">
            <mxPoint x="1" as="offset" />
          </mxGeometry>
        </mxCell>
        <mxCell id="rSsmFgzWFO_JdAn4o0Gd-27" value="0..*" style="text;html=1;align=center;verticalAlign=middle;resizable=0;points=[];autosize=1;strokeColor=none;fillColor=none;" parent="1" vertex="1">
          <mxGeometry x="480" y="145" width="40" height="30" as="geometry" />
        </mxCell>
        <mxCell id="rSsmFgzWFO_JdAn4o0Gd-28" value="1" style="text;html=1;align=center;verticalAlign=middle;resizable=0;points=[];autosize=1;strokeColor=none;fillColor=none;" parent="1" vertex="1">
          <mxGeometry x="400" y="145" width="30" height="30" as="geometry" />
        </mxCell>
        <mxCell id="GpoWLLTxSxqn1S8ftEsB-1" value="BattleBuilder" style="swimlane;fontStyle=1;align=center;verticalAlign=top;childLayout=stackLayout;horizontal=1;startSize=26;horizontalStack=0;resizeParent=1;resizeParentMax=0;resizeLast=0;collapsible=1;marginBottom=0;whiteSpace=wrap;html=1;" parent="1" vertex="1">
          <mxGeometry x="350" y="450" width="270" height="210" as="geometry" />
        </mxCell>
        <mxCell id="GpoWLLTxSxqn1S8ftEsB-2" value="- seed: Integer&lt;br&gt;- pokemonRepo: IPokemonRepo&lt;br&gt;- p1: Pokemon&lt;br&gt;- p2: Pokemon" style="text;strokeColor=none;fillColor=none;align=left;verticalAlign=top;spacingLeft=4;spacingRight=4;overflow=hidden;rotatable=0;points=[[0,0.5],[1,0.5]];portConstraint=eastwest;whiteSpace=wrap;html=1;" parent="GpoWLLTxSxqn1S8ftEsB-1" vertex="1">
          <mxGeometry y="26" width="270" height="64" as="geometry" />
        </mxCell>
        <mxCell id="GpoWLLTxSxqn1S8ftEsB-3" value="" style="line;strokeWidth=1;fillColor=none;align=left;verticalAlign=middle;spacingTop=-1;spacingLeft=3;spacingRight=3;rotatable=0;labelPosition=right;points=[];portConstraint=eastwest;strokeColor=inherit;" parent="GpoWLLTxSxqn1S8ftEsB-1" vertex="1">
          <mxGeometry y="90" width="270" height="8" as="geometry" />
        </mxCell>
        <mxCell id="GpoWLLTxSxqn1S8ftEsB-4" value="+ BattleBuilder(IPokemonRepo pokemonRepo)&lt;br&gt;+ build(): Battle&lt;br&gt;+ setSeed(Integer seed): void&lt;br&gt;+ removeSeed(): void&lt;br&gt;+ getSeed(): int&lt;br&gt;+ setP1(String name): void&lt;br&gt;+ setP2(String name): void" style="text;strokeColor=none;fillColor=none;align=left;verticalAlign=top;spacingLeft=4;spacingRight=4;overflow=hidden;rotatable=0;points=[[0,0.5],[1,0.5]];portConstraint=eastwest;whiteSpace=wrap;html=1;" parent="GpoWLLTxSxqn1S8ftEsB-1" vertex="1">
          <mxGeometry y="98" width="270" height="112" as="geometry" />
        </mxCell>
        <mxCell id="GpoWLLTxSxqn1S8ftEsB-7" value="MockAttackContainer" style="swimlane;fontStyle=1;align=center;verticalAlign=top;childLayout=stackLayout;horizontal=1;startSize=26;horizontalStack=0;resizeParent=1;resizeParentMax=0;resizeLast=0;collapsible=1;marginBottom=0;whiteSpace=wrap;html=1;" parent="1" vertex="1">
          <mxGeometry x="850" y="210" width="140" height="50" as="geometry" />
        </mxCell>
        <mxCell id="GpoWLLTxSxqn1S8ftEsB-11" value="MockDefenseContainer" style="swimlane;fontStyle=1;align=center;verticalAlign=top;childLayout=stackLayout;horizontal=1;startSize=26;horizontalStack=0;resizeParent=1;resizeParentMax=0;resizeLast=0;collapsible=1;marginBottom=0;whiteSpace=wrap;html=1;" parent="1" vertex="1">
          <mxGeometry x="960" y="270" width="140" height="50" as="geometry" />
        </mxCell>
        <mxCell id="GpoWLLTxSxqn1S8ftEsB-15" value="MockSkillContainer" style="swimlane;fontStyle=1;align=center;verticalAlign=top;childLayout=stackLayout;horizontal=1;startSize=26;horizontalStack=0;resizeParent=1;resizeParentMax=0;resizeLast=0;collapsible=1;marginBottom=0;whiteSpace=wrap;html=1;" parent="1" vertex="1">
          <mxGeometry x="1040" y="209" width="140" height="52" as="geometry" />
        </mxCell>
        <mxCell id="GpoWLLTxSxqn1S8ftEsB-16" value="- skills: List&amp;lt;Skill&amp;gt;" style="text;strokeColor=none;fillColor=none;align=left;verticalAlign=top;spacingLeft=4;spacingRight=4;overflow=hidden;rotatable=0;points=[[0,0.5],[1,0.5]];portConstraint=eastwest;whiteSpace=wrap;html=1;" parent="GpoWLLTxSxqn1S8ftEsB-15" vertex="1">
          <mxGeometry y="26" width="140" height="26" as="geometry" />
        </mxCell>
        <mxCell id="GpoWLLTxSxqn1S8ftEsB-20" value="" style="endArrow=block;dashed=1;endFill=0;endSize=8;html=1;rounded=0;entryX=0.285;entryY=1.05;entryDx=0;entryDy=0;entryPerimeter=0;exitX=0.5;exitY=0;exitDx=0;exitDy=0;" parent="1" source="GpoWLLTxSxqn1S8ftEsB-7" target="MCqwjviWJ43rbgQTnmE4-33" edge="1">
          <mxGeometry width="160" relative="1" as="geometry">
            <mxPoint x="805" y="130" as="sourcePoint" />
            <mxPoint x="1057.05" y="152" as="targetPoint" />
          </mxGeometry>
        </mxCell>
        <mxCell id="GpoWLLTxSxqn1S8ftEsB-22" value="" style="endArrow=block;dashed=1;endFill=0;endSize=8;html=1;rounded=0;exitX=0.5;exitY=0;exitDx=0;exitDy=0;entryX=0.521;entryY=1.05;entryDx=0;entryDy=0;entryPerimeter=0;" parent="1" source="GpoWLLTxSxqn1S8ftEsB-11" target="MCqwjviWJ43rbgQTnmE4-33" edge="1">
          <mxGeometry width="160" relative="1" as="geometry">
            <mxPoint x="815" y="140" as="sourcePoint" />
            <mxPoint x="1000" y="190" as="targetPoint" />
          </mxGeometry>
        </mxCell>
        <mxCell id="GpoWLLTxSxqn1S8ftEsB-24" value="" style="endArrow=block;dashed=1;endFill=0;endSize=8;html=1;rounded=0;exitX=0.5;exitY=0;exitDx=0;exitDy=0;entryX=0.715;entryY=1.05;entryDx=0;entryDy=0;entryPerimeter=0;" parent="1" source="GpoWLLTxSxqn1S8ftEsB-15" target="MCqwjviWJ43rbgQTnmE4-33" edge="1">
          <mxGeometry width="160" relative="1" as="geometry">
            <mxPoint x="1030" y="140" as="sourcePoint" />
            <mxPoint x="1132.95" y="151" as="targetPoint" />
          </mxGeometry>
        </mxCell>
        <mxCell id="GpoWLLTxSxqn1S8ftEsB-25" value="BattleStateFactory" style="swimlane;fontStyle=1;align=center;verticalAlign=top;childLayout=stackLayout;horizontal=1;startSize=26;horizontalStack=0;resizeParent=1;resizeParentMax=0;resizeLast=0;collapsible=1;marginBottom=0;whiteSpace=wrap;html=1;" parent="1" vertex="1">
          <mxGeometry x="530" y="680" width="310" height="140" as="geometry" />
        </mxCell>
        <mxCell id="GpoWLLTxSxqn1S8ftEsB-26" value="+ MIN_HEALTH_RATIO_WHEN_STRONG: double&lt;br&gt;+ MIN_HEALTH_RATIO_WHEN_WEAKENED: double" style="text;strokeColor=none;fillColor=none;align=left;verticalAlign=top;spacingLeft=4;spacingRight=4;overflow=hidden;rotatable=0;points=[[0,0.5],[1,0.5]];portConstraint=eastwest;whiteSpace=wrap;html=1;" parent="GpoWLLTxSxqn1S8ftEsB-25" vertex="1">
          <mxGeometry y="26" width="310" height="44" as="geometry" />
        </mxCell>
        <mxCell id="GpoWLLTxSxqn1S8ftEsB-27" value="" style="line;strokeWidth=1;fillColor=none;align=left;verticalAlign=middle;spacingTop=-1;spacingLeft=3;spacingRight=3;rotatable=0;labelPosition=right;points=[];portConstraint=eastwest;strokeColor=inherit;" parent="GpoWLLTxSxqn1S8ftEsB-25" vertex="1">
          <mxGeometry y="70" width="310" height="8" as="geometry" />
        </mxCell>
        <mxCell id="GpoWLLTxSxqn1S8ftEsB-28" value="+ getBattleState(int health, int maxHealth): IBattleState&lt;br&gt;- getHealthRatio(int health, int maxHealth): double&lt;br&gt;- getBattleState(double healthRatio): IBattleState" style="text;strokeColor=none;fillColor=none;align=left;verticalAlign=top;spacingLeft=4;spacingRight=4;overflow=hidden;rotatable=0;points=[[0,0.5],[1,0.5]];portConstraint=eastwest;whiteSpace=wrap;html=1;" parent="GpoWLLTxSxqn1S8ftEsB-25" vertex="1">
          <mxGeometry y="78" width="310" height="62" as="geometry" />
        </mxCell>
        <mxCell id="GpoWLLTxSxqn1S8ftEsB-30" value="CriticalBattleState" style="swimlane;fontStyle=1;align=center;verticalAlign=top;childLayout=stackLayout;horizontal=1;startSize=26;horizontalStack=0;resizeParent=1;resizeParentMax=0;resizeLast=0;collapsible=1;marginBottom=0;whiteSpace=wrap;html=1;" parent="1" vertex="1">
          <mxGeometry x="90" y="980" width="310" height="70" as="geometry" />
        </mxCell>
        <mxCell id="GpoWLLTxSxqn1S8ftEsB-31" value="+ ATTACK_IF_GREATER_THAN_OR_EQUAL_TO: int&lt;br style=&quot;border-color: var(--border-color);&quot;&gt;+ MAX_ROLL_EXCLUSIVE: int&lt;span style=&quot;background-color: initial;&quot;&gt;&lt;br&gt;&lt;/span&gt;" style="text;strokeColor=none;fillColor=none;align=left;verticalAlign=top;spacingLeft=4;spacingRight=4;overflow=hidden;rotatable=0;points=[[0,0.5],[1,0.5]];portConstraint=eastwest;whiteSpace=wrap;html=1;" parent="GpoWLLTxSxqn1S8ftEsB-30" vertex="1">
          <mxGeometry y="26" width="310" height="44" as="geometry" />
        </mxCell>
        <mxCell id="GpoWLLTxSxqn1S8ftEsB-42" value="" style="endArrow=block;dashed=1;endFill=0;endSize=8;html=1;rounded=0;exitX=0.5;exitY=0;exitDx=0;exitDy=0;entryX=0.211;entryY=1.231;entryDx=0;entryDy=0;entryPerimeter=0;" parent="1" source="GpoWLLTxSxqn1S8ftEsB-30" target="MCqwjviWJ43rbgQTnmE4-38" edge="1">
          <mxGeometry width="160" relative="1" as="geometry">
            <mxPoint x="929" y="488" as="sourcePoint" />
            <mxPoint x="400" y="970" as="targetPoint" />
          </mxGeometry>
        </mxCell>
        <mxCell id="GpoWLLTxSxqn1S8ftEsB-43" value="" style="endArrow=block;dashed=1;endFill=0;endSize=8;html=1;rounded=0;exitX=0.25;exitY=0;exitDx=0;exitDy=0;entryX=0.5;entryY=1.038;entryDx=0;entryDy=0;entryPerimeter=0;" parent="1" source="MCqwjviWJ43rbgQTnmE4-40" target="MCqwjviWJ43rbgQTnmE4-38" edge="1">
          <mxGeometry width="160" relative="1" as="geometry">
            <mxPoint x="450" y="1000" as="sourcePoint" />
            <mxPoint x="460" y="970" as="targetPoint" />
          </mxGeometry>
        </mxCell>
        <mxCell id="GpoWLLTxSxqn1S8ftEsB-44" value="" style="endArrow=block;dashed=1;endFill=0;endSize=8;html=1;rounded=0;entryX=0.687;entryY=1.077;entryDx=0;entryDy=0;entryPerimeter=0;exitX=0.002;exitY=0.16;exitDx=0;exitDy=0;exitPerimeter=0;" parent="1" source="MCqwjviWJ43rbgQTnmE4-43" target="MCqwjviWJ43rbgQTnmE4-38" edge="1">
          <mxGeometry width="160" relative="1" as="geometry">
            <mxPoint x="690" y="940" as="sourcePoint" />
            <mxPoint x="480" y="910" as="targetPoint" />
          </mxGeometry>
        </mxCell>
        <mxCell id="GpoWLLTxSxqn1S8ftEsB-46" value="Game" style="swimlane;fontStyle=1;align=center;verticalAlign=top;childLayout=stackLayout;horizontal=1;startSize=26;horizontalStack=0;resizeParent=1;resizeParentMax=0;resizeLast=0;collapsible=1;marginBottom=0;whiteSpace=wrap;html=1;" parent="1" vertex="1">
          <mxGeometry x="30" y="690" width="200" height="140" as="geometry" />
        </mxCell>
        <mxCell id="GpoWLLTxSxqn1S8ftEsB-47" value="- battleBuilder: BattleBuilder" style="text;strokeColor=none;fillColor=none;align=left;verticalAlign=top;spacingLeft=4;spacingRight=4;overflow=hidden;rotatable=0;points=[[0,0.5],[1,0.5]];portConstraint=eastwest;whiteSpace=wrap;html=1;" parent="GpoWLLTxSxqn1S8ftEsB-46" vertex="1">
          <mxGeometry y="26" width="200" height="26" as="geometry" />
        </mxCell>
        <mxCell id="GpoWLLTxSxqn1S8ftEsB-48" value="" style="line;strokeWidth=1;fillColor=none;align=left;verticalAlign=middle;spacingTop=-1;spacingLeft=3;spacingRight=3;rotatable=0;labelPosition=right;points=[];portConstraint=eastwest;strokeColor=inherit;" parent="GpoWLLTxSxqn1S8ftEsB-46" vertex="1">
          <mxGeometry y="52" width="200" height="8" as="geometry" />
        </mxCell>
        <mxCell id="GpoWLLTxSxqn1S8ftEsB-49" value="+ Game(BattleBuilder battleBuilder)&lt;br&gt;+ setSeed(Integer seed): void&lt;br&gt;+ removeSeed(): void&lt;br&gt;+ battle(String p1, String p2): void&lt;br&gt;+ stop(): void" style="text;strokeColor=none;fillColor=none;align=left;verticalAlign=top;spacingLeft=4;spacingRight=4;overflow=hidden;rotatable=0;points=[[0,0.5],[1,0.5]];portConstraint=eastwest;whiteSpace=wrap;html=1;" parent="GpoWLLTxSxqn1S8ftEsB-46" vertex="1">
          <mxGeometry y="60" width="200" height="80" as="geometry" />
        </mxCell>
        <mxCell id="MCqwjviWJ43rbgQTnmE4-2" value="" style="endArrow=diamond;endFill=1;endSize=8;html=1;rounded=0;entryX=-0.009;entryY=-0.047;entryDx=0;entryDy=0;entryPerimeter=0;exitX=1;exitY=0.5;exitDx=0;exitDy=0;" edge="1" parent="1" source="MCqwjviWJ43rbgQTnmE4-47" target="GpoWLLTxSxqn1S8ftEsB-2">
          <mxGeometry width="160" relative="1" as="geometry">
            <mxPoint x="230" y="470" as="sourcePoint" />
            <mxPoint x="340" y="470" as="targetPoint" />
          </mxGeometry>
        </mxCell>
        <mxCell id="MCqwjviWJ43rbgQTnmE4-9" value="" style="endArrow=block;dashed=1;endFill=0;endSize=8;html=1;rounded=0;entryX=0.445;entryY=0.969;entryDx=0;entryDy=0;entryPerimeter=0;" edge="1" parent="1" target="MCqwjviWJ43rbgQTnmE4-47">
          <mxGeometry width="160" relative="1" as="geometry">
            <mxPoint x="183" y="550" as="sourcePoint" />
            <mxPoint x="170" y="500" as="targetPoint" />
          </mxGeometry>
        </mxCell>
        <mxCell id="MCqwjviWJ43rbgQTnmE4-10" value="" style="endArrow=diamond;endFill=1;endSize=8;html=1;rounded=0;exitX=0.421;exitY=1.01;exitDx=0;exitDy=0;exitPerimeter=0;" edge="1" parent="1" source="GpoWLLTxSxqn1S8ftEsB-4">
          <mxGeometry width="160" relative="1" as="geometry">
            <mxPoint x="420" y="710" as="sourcePoint" />
            <mxPoint x="230" y="730" as="targetPoint" />
            <Array as="points">
              <mxPoint x="464" y="730" />
            </Array>
          </mxGeometry>
        </mxCell>
        <mxCell id="MCqwjviWJ43rbgQTnmE4-11" value="" style="endArrow=none;endFill=0;endSize=8;html=1;rounded=0;entryX=-0.004;entryY=1.024;entryDx=0;entryDy=0;entryPerimeter=0;exitX=0;exitY=-0.068;exitDx=0;exitDy=0;exitPerimeter=0;" edge="1" parent="1" target="rSsmFgzWFO_JdAn4o0Gd-2">
          <mxGeometry width="160" relative="1" as="geometry">
            <mxPoint x="100" y="587.008" as="sourcePoint" />
            <mxPoint x="360" y="479" as="targetPoint" />
            <Array as="points">
              <mxPoint x="70" y="587" />
              <mxPoint x="70" y="400" />
              <mxPoint x="70" y="212" />
            </Array>
          </mxGeometry>
        </mxCell>
        <mxCell id="MCqwjviWJ43rbgQTnmE4-20" value="instantiates" style="edgeLabel;html=1;align=center;verticalAlign=middle;resizable=0;points=[];" vertex="1" connectable="0" parent="MCqwjviWJ43rbgQTnmE4-11">
          <mxGeometry x="0.2903" y="-1" relative="1" as="geometry">
            <mxPoint as="offset" />
          </mxGeometry>
        </mxCell>
        <mxCell id="MCqwjviWJ43rbgQTnmE4-13" value="" style="endArrow=none;endFill=0;endSize=8;html=1;rounded=0;exitX=0.5;exitY=0;exitDx=0;exitDy=0;" edge="1" parent="1" source="MCqwjviWJ43rbgQTnmE4-35">
          <mxGeometry width="160" relative="1" as="geometry">
            <mxPoint x="470" y="850" as="sourcePoint" />
            <mxPoint x="530" y="770" as="targetPoint" />
            <Array as="points">
              <mxPoint x="473" y="770" />
            </Array>
          </mxGeometry>
        </mxCell>
        <mxCell id="MCqwjviWJ43rbgQTnmE4-39" value="instantiates" style="edgeLabel;html=1;align=center;verticalAlign=middle;resizable=0;points=[];" vertex="1" connectable="0" parent="MCqwjviWJ43rbgQTnmE4-13">
          <mxGeometry x="-0.0857" y="2" relative="1" as="geometry">
            <mxPoint x="1" as="offset" />
          </mxGeometry>
        </mxCell>
        <mxCell id="MCqwjviWJ43rbgQTnmE4-16" value="" style="endArrow=none;endFill=0;endSize=8;html=1;rounded=0;exitX=0.481;exitY=-0.021;exitDx=0;exitDy=0;exitPerimeter=0;entryX=0.623;entryY=0.003;entryDx=0;entryDy=0;entryPerimeter=0;" edge="1" parent="1" source="GpoWLLTxSxqn1S8ftEsB-25" target="rSsmFgzWFO_JdAn4o0Gd-1">
          <mxGeometry width="160" relative="1" as="geometry">
            <mxPoint x="660" y="651" as="sourcePoint" />
            <mxPoint x="310" y="70" as="targetPoint" />
            <Array as="points">
              <mxPoint x="680" y="530" />
              <mxPoint x="820" y="530" />
              <mxPoint x="820" y="340" />
              <mxPoint x="820" y="70" />
              <mxPoint x="670" y="70" />
              <mxPoint x="320" y="70" />
            </Array>
          </mxGeometry>
        </mxCell>
        <mxCell id="MCqwjviWJ43rbgQTnmE4-48" value="uses" style="edgeLabel;html=1;align=center;verticalAlign=middle;resizable=0;points=[];" vertex="1" connectable="0" parent="MCqwjviWJ43rbgQTnmE4-16">
          <mxGeometry x="-0.0956" y="2" relative="1" as="geometry">
            <mxPoint x="1" as="offset" />
          </mxGeometry>
        </mxCell>
        <mxCell id="MCqwjviWJ43rbgQTnmE4-17" value="" style="endArrow=none;endFill=0;endSize=8;html=1;rounded=0;exitX=1.005;exitY=-0.023;exitDx=0;exitDy=0;exitPerimeter=0;" edge="1" parent="1" source="rSsmFgzWFO_JdAn4o0Gd-6">
          <mxGeometry width="160" relative="1" as="geometry">
            <mxPoint x="651" y="229" as="sourcePoint" />
            <mxPoint x="900" y="125" as="targetPoint" />
          </mxGeometry>
        </mxCell>
        <mxCell id="MCqwjviWJ43rbgQTnmE4-49" value="retrieved by" style="edgeLabel;html=1;align=center;verticalAlign=middle;resizable=0;points=[];" vertex="1" connectable="0" parent="MCqwjviWJ43rbgQTnmE4-17">
          <mxGeometry x="-0.0271" y="-2" relative="1" as="geometry">
            <mxPoint x="-18" y="-1" as="offset" />
          </mxGeometry>
        </mxCell>
        <mxCell id="MCqwjviWJ43rbgQTnmE4-18" value="" style="endArrow=none;endFill=0;endSize=8;html=1;rounded=0;entryX=0.005;entryY=-0.028;entryDx=0;entryDy=0;entryPerimeter=0;" edge="1" parent="1" target="rSsmFgzWFO_JdAn4o0Gd-12">
          <mxGeometry width="160" relative="1" as="geometry">
            <mxPoint x="440" y="450" as="sourcePoint" />
            <mxPoint x="660" y="540" as="targetPoint" />
            <Array as="points">
              <mxPoint x="440" y="356" />
            </Array>
          </mxGeometry>
        </mxCell>
        <mxCell id="MCqwjviWJ43rbgQTnmE4-19" value="instantiates" style="edgeLabel;html=1;align=center;verticalAlign=middle;resizable=0;points=[];" vertex="1" connectable="0" parent="MCqwjviWJ43rbgQTnmE4-18">
          <mxGeometry x="0.0316" y="-1" relative="1" as="geometry">
            <mxPoint as="offset" />
          </mxGeometry>
        </mxCell>
        <mxCell id="MCqwjviWJ43rbgQTnmE4-30" value="«interface»&lt;br style=&quot;border-color: var(--border-color); font-weight: 400;&quot;&gt;&lt;b style=&quot;border-color: var(--border-color);&quot;&gt;ISkillContianer&lt;/b&gt;" style="swimlane;fontStyle=1;align=center;verticalAlign=top;childLayout=stackLayout;horizontal=1;startSize=40;horizontalStack=0;resizeParent=1;resizeParentMax=0;resizeLast=0;collapsible=1;marginBottom=0;whiteSpace=wrap;html=1;" vertex="1" parent="1">
          <mxGeometry x="900" y="80" width="170" height="100" as="geometry" />
        </mxCell>
        <mxCell id="MCqwjviWJ43rbgQTnmE4-33" value="+ addSkill(Skill skill): void&lt;br style=&quot;border-color: var(--border-color);&quot;&gt;+ choose(int choice): Skill&lt;br style=&quot;border-color: var(--border-color);&quot;&gt;+ size(): int" style="text;strokeColor=none;fillColor=none;align=left;verticalAlign=top;spacingLeft=4;spacingRight=4;overflow=hidden;rotatable=0;points=[[0,0.5],[1,0.5]];portConstraint=eastwest;whiteSpace=wrap;html=1;" vertex="1" parent="MCqwjviWJ43rbgQTnmE4-30">
          <mxGeometry y="40" width="170" height="60" as="geometry" />
        </mxCell>
        <mxCell id="MCqwjviWJ43rbgQTnmE4-35" value="«interface»&lt;br style=&quot;border-color: var(--border-color); font-weight: 400;&quot;&gt;&lt;b style=&quot;border-color: var(--border-color);&quot;&gt;IBattleState&lt;/b&gt;" style="swimlane;fontStyle=1;align=center;verticalAlign=top;childLayout=stackLayout;horizontal=1;startSize=40;horizontalStack=0;resizeParent=1;resizeParentMax=0;resizeLast=0;collapsible=1;marginBottom=0;whiteSpace=wrap;html=1;" vertex="1" parent="1">
          <mxGeometry x="360" y="870" width="225" height="66" as="geometry" />
        </mxCell>
        <mxCell id="MCqwjviWJ43rbgQTnmE4-38" value="+ shouldAttack(Random rng): boolean" style="text;strokeColor=none;fillColor=none;align=left;verticalAlign=top;spacingLeft=4;spacingRight=4;overflow=hidden;rotatable=0;points=[[0,0.5],[1,0.5]];portConstraint=eastwest;whiteSpace=wrap;html=1;" vertex="1" parent="MCqwjviWJ43rbgQTnmE4-35">
          <mxGeometry y="40" width="225" height="26" as="geometry" />
        </mxCell>
        <mxCell id="MCqwjviWJ43rbgQTnmE4-42" value="WeakenedBattleState" style="swimlane;fontStyle=1;align=center;verticalAlign=top;childLayout=stackLayout;horizontal=1;startSize=26;horizontalStack=0;resizeParent=1;resizeParentMax=0;resizeLast=0;collapsible=1;marginBottom=0;whiteSpace=wrap;html=1;" vertex="1" parent="1">
          <mxGeometry x="750" y="930" width="310" height="70" as="geometry" />
        </mxCell>
        <mxCell id="MCqwjviWJ43rbgQTnmE4-43" value="+ ATTACK_IF_GREATER_THAN_OR_EQUAL_TO: int&lt;br style=&quot;border-color: var(--border-color);&quot;&gt;+ MAX_ROLL_EXCLUSIVE: int&lt;span style=&quot;background-color: initial;&quot;&gt;&lt;br&gt;&lt;/span&gt;" style="text;strokeColor=none;fillColor=none;align=left;verticalAlign=top;spacingLeft=4;spacingRight=4;overflow=hidden;rotatable=0;points=[[0,0.5],[1,0.5]];portConstraint=eastwest;whiteSpace=wrap;html=1;" vertex="1" parent="MCqwjviWJ43rbgQTnmE4-42">
          <mxGeometry y="26" width="310" height="44" as="geometry" />
        </mxCell>
        <mxCell id="MCqwjviWJ43rbgQTnmE4-40" value="StrongBattleState" style="swimlane;fontStyle=1;align=center;verticalAlign=top;childLayout=stackLayout;horizontal=1;startSize=26;horizontalStack=0;resizeParent=1;resizeParentMax=0;resizeLast=0;collapsible=1;marginBottom=0;whiteSpace=wrap;html=1;" vertex="1" parent="1">
          <mxGeometry x="410" y="980" width="310" height="70" as="geometry" />
        </mxCell>
        <mxCell id="MCqwjviWJ43rbgQTnmE4-41" value="+ ATTACK_IF_GREATER_THAN_OR_EQUAL_TO: int&lt;br style=&quot;border-color: var(--border-color);&quot;&gt;+ MAX_ROLL_EXCLUSIVE: int&lt;span style=&quot;background-color: initial;&quot;&gt;&lt;br&gt;&lt;/span&gt;" style="text;strokeColor=none;fillColor=none;align=left;verticalAlign=top;spacingLeft=4;spacingRight=4;overflow=hidden;rotatable=0;points=[[0,0.5],[1,0.5]];portConstraint=eastwest;whiteSpace=wrap;html=1;" vertex="1" parent="MCqwjviWJ43rbgQTnmE4-40">
          <mxGeometry y="26" width="310" height="44" as="geometry" />
        </mxCell>
        <mxCell id="MCqwjviWJ43rbgQTnmE4-44" value="«interface»&lt;br style=&quot;border-color: var(--border-color);&quot;&gt;&lt;b style=&quot;border-color: var(--border-color);&quot;&gt;IPokemonRepo&lt;/b&gt;" style="swimlane;fontStyle=0;childLayout=stackLayout;horizontal=1;startSize=26;fillColor=none;horizontalStack=0;resizeParent=1;resizeParentMax=0;resizeLast=0;collapsible=1;marginBottom=0;whiteSpace=wrap;html=1;" vertex="1" parent="1">
          <mxGeometry x="90" y="420" width="210" height="80" as="geometry" />
        </mxCell>
        <mxCell id="MCqwjviWJ43rbgQTnmE4-47" value="+ get(String, Integer seed): Pokemon&lt;br style=&quot;border-color: var(--border-color); padding: 0px; margin: 0px;&quot;&gt;&lt;span style=&quot;&quot;&gt;+ load(String): void&lt;/span&gt;" style="text;strokeColor=none;fillColor=none;align=left;verticalAlign=top;spacingLeft=4;spacingRight=4;overflow=hidden;rotatable=0;points=[[0,0.5],[1,0.5]];portConstraint=eastwest;whiteSpace=wrap;html=1;" vertex="1" parent="MCqwjviWJ43rbgQTnmE4-44">
          <mxGeometry y="26" width="210" height="54" as="geometry" />
        </mxCell>
        <mxCell id="MCqwjviWJ43rbgQTnmE4-56" value="Main" style="swimlane;fontStyle=1;align=center;verticalAlign=top;childLayout=stackLayout;horizontal=1;startSize=26;horizontalStack=0;resizeParent=1;resizeParentMax=0;resizeLast=0;collapsible=1;marginBottom=0;whiteSpace=wrap;html=1;" vertex="1" parent="1">
          <mxGeometry x="50" y="890" width="160" height="52" as="geometry" />
        </mxCell>
        <mxCell id="MCqwjviWJ43rbgQTnmE4-59" value="+ main(String[] args): void" style="text;strokeColor=none;fillColor=none;align=left;verticalAlign=top;spacingLeft=4;spacingRight=4;overflow=hidden;rotatable=0;points=[[0,0.5],[1,0.5]];portConstraint=eastwest;whiteSpace=wrap;html=1;" vertex="1" parent="MCqwjviWJ43rbgQTnmE4-56">
          <mxGeometry y="26" width="160" height="26" as="geometry" />
        </mxCell>
        <mxCell id="MCqwjviWJ43rbgQTnmE4-60" value="CommandProcessor" style="swimlane;fontStyle=1;align=center;verticalAlign=top;childLayout=stackLayout;horizontal=1;startSize=26;horizontalStack=0;resizeParent=1;resizeParentMax=0;resizeLast=0;collapsible=1;marginBottom=0;whiteSpace=wrap;html=1;" vertex="1" parent="1">
          <mxGeometry x="40" y="1100" width="230" height="100" as="geometry" />
        </mxCell>
        <mxCell id="MCqwjviWJ43rbgQTnmE4-61" value="+ game: Game" style="text;strokeColor=none;fillColor=none;align=left;verticalAlign=top;spacingLeft=4;spacingRight=4;overflow=hidden;rotatable=0;points=[[0,0.5],[1,0.5]];portConstraint=eastwest;whiteSpace=wrap;html=1;" vertex="1" parent="MCqwjviWJ43rbgQTnmE4-60">
          <mxGeometry y="26" width="230" height="26" as="geometry" />
        </mxCell>
        <mxCell id="MCqwjviWJ43rbgQTnmE4-62" value="" style="line;strokeWidth=1;fillColor=none;align=left;verticalAlign=middle;spacingTop=-1;spacingLeft=3;spacingRight=3;rotatable=0;labelPosition=right;points=[];portConstraint=eastwest;strokeColor=inherit;" vertex="1" parent="MCqwjviWJ43rbgQTnmE4-60">
          <mxGeometry y="52" width="230" height="8" as="geometry" />
        </mxCell>
        <mxCell id="MCqwjviWJ43rbgQTnmE4-63" value="+ CommandProcessor(Game game)&lt;br&gt;+ ProcessCommands(String[] args): void" style="text;strokeColor=none;fillColor=none;align=left;verticalAlign=top;spacingLeft=4;spacingRight=4;overflow=hidden;rotatable=0;points=[[0,0.5],[1,0.5]];portConstraint=eastwest;whiteSpace=wrap;html=1;" vertex="1" parent="MCqwjviWJ43rbgQTnmE4-60">
          <mxGeometry y="60" width="230" height="40" as="geometry" />
        </mxCell>
        <mxCell id="MCqwjviWJ43rbgQTnmE4-68" value="Pikachu" style="swimlane;fontStyle=1;align=center;verticalAlign=top;childLayout=stackLayout;horizontal=1;startSize=26;horizontalStack=0;resizeParent=1;resizeLast=0;collapsible=1;marginBottom=0;rounded=0;shadow=0;strokeWidth=1;" vertex="1" parent="1">
          <mxGeometry x="40" y="-170" width="190" height="200" as="geometry">
            <mxRectangle x="230" y="140" width="160" height="26" as="alternateBounds" />
          </mxGeometry>
        </mxCell>
        <mxCell id="MCqwjviWJ43rbgQTnmE4-69" value="- name: String" style="text;align=left;verticalAlign=top;spacingLeft=4;spacingRight=4;overflow=hidden;rotatable=0;points=[[0,0.5],[1,0.5]];portConstraint=eastwest;" vertex="1" parent="MCqwjviWJ43rbgQTnmE4-68">
          <mxGeometry y="26" width="190" height="26" as="geometry" />
        </mxCell>
        <mxCell id="MCqwjviWJ43rbgQTnmE4-70" value="- attackSkills: ISkillContainer" style="text;align=left;verticalAlign=top;spacingLeft=4;spacingRight=4;overflow=hidden;rotatable=0;points=[[0,0.5],[1,0.5]];portConstraint=eastwest;" vertex="1" parent="MCqwjviWJ43rbgQTnmE4-68">
          <mxGeometry y="52" width="190" height="26" as="geometry" />
        </mxCell>
        <mxCell id="MCqwjviWJ43rbgQTnmE4-71" value="- defendSkills: ISkillContainer" style="text;align=left;verticalAlign=top;spacingLeft=4;spacingRight=4;overflow=hidden;rotatable=0;points=[[0,0.5],[1,0.5]];portConstraint=eastwest;" vertex="1" parent="MCqwjviWJ43rbgQTnmE4-68">
          <mxGeometry y="78" width="190" height="26" as="geometry" />
        </mxCell>
        <mxCell id="MCqwjviWJ43rbgQTnmE4-72" value="" style="line;html=1;strokeWidth=1;align=left;verticalAlign=middle;spacingTop=-1;spacingLeft=3;spacingRight=3;rotatable=0;labelPosition=right;points=[];portConstraint=eastwest;" vertex="1" parent="MCqwjviWJ43rbgQTnmE4-68">
          <mxGeometry y="104" width="190" height="14" as="geometry" />
        </mxCell>
        <mxCell id="MCqwjviWJ43rbgQTnmE4-73" value="+ Pikachu(Integer seed)" style="text;align=left;verticalAlign=top;spacingLeft=4;spacingRight=4;overflow=hidden;rotatable=0;points=[[0,0.5],[1,0.5]];portConstraint=eastwest;" vertex="1" parent="MCqwjviWJ43rbgQTnmE4-68">
          <mxGeometry y="118" width="190" height="26" as="geometry" />
        </mxCell>
        <mxCell id="MCqwjviWJ43rbgQTnmE4-74" value="- initAttackSkills(): ISkillContainer" style="text;align=left;verticalAlign=top;spacingLeft=4;spacingRight=4;overflow=hidden;rotatable=0;points=[[0,0.5],[1,0.5]];portConstraint=eastwest;" vertex="1" parent="MCqwjviWJ43rbgQTnmE4-68">
          <mxGeometry y="144" width="190" height="26" as="geometry" />
        </mxCell>
        <mxCell id="MCqwjviWJ43rbgQTnmE4-75" value="- initDefenseSkills(): ISkillContainer" style="text;align=left;verticalAlign=top;spacingLeft=4;spacingRight=4;overflow=hidden;rotatable=0;points=[[0,0.5],[1,0.5]];portConstraint=eastwest;" vertex="1" parent="MCqwjviWJ43rbgQTnmE4-68">
          <mxGeometry y="170" width="190" height="26" as="geometry" />
        </mxCell>
        <mxCell id="MCqwjviWJ43rbgQTnmE4-106" style="edgeStyle=orthogonalEdgeStyle;rounded=0;orthogonalLoop=1;jettySize=auto;html=1;endArrow=none;endFill=0;" edge="1" parent="1" source="MCqwjviWJ43rbgQTnmE4-79">
          <mxGeometry relative="1" as="geometry">
            <mxPoint x="270" y="50" as="targetPoint" />
          </mxGeometry>
        </mxCell>
        <mxCell id="MCqwjviWJ43rbgQTnmE4-79" value="Bulbasaur" style="swimlane;fontStyle=1;align=center;verticalAlign=top;childLayout=stackLayout;horizontal=1;startSize=26;horizontalStack=0;resizeParent=1;resizeLast=0;collapsible=1;marginBottom=0;rounded=0;shadow=0;strokeWidth=1;" vertex="1" parent="1">
          <mxGeometry x="260" y="-170" width="200" height="200" as="geometry">
            <mxRectangle x="230" y="140" width="160" height="26" as="alternateBounds" />
          </mxGeometry>
        </mxCell>
        <mxCell id="MCqwjviWJ43rbgQTnmE4-80" value="- name: String" style="text;align=left;verticalAlign=top;spacingLeft=4;spacingRight=4;overflow=hidden;rotatable=0;points=[[0,0.5],[1,0.5]];portConstraint=eastwest;" vertex="1" parent="MCqwjviWJ43rbgQTnmE4-79">
          <mxGeometry y="26" width="200" height="26" as="geometry" />
        </mxCell>
        <mxCell id="MCqwjviWJ43rbgQTnmE4-81" value="- attackSkills: ISkillContainer" style="text;align=left;verticalAlign=top;spacingLeft=4;spacingRight=4;overflow=hidden;rotatable=0;points=[[0,0.5],[1,0.5]];portConstraint=eastwest;" vertex="1" parent="MCqwjviWJ43rbgQTnmE4-79">
          <mxGeometry y="52" width="200" height="26" as="geometry" />
        </mxCell>
        <mxCell id="MCqwjviWJ43rbgQTnmE4-82" value="- defendSkills: ISkillContainer" style="text;align=left;verticalAlign=top;spacingLeft=4;spacingRight=4;overflow=hidden;rotatable=0;points=[[0,0.5],[1,0.5]];portConstraint=eastwest;" vertex="1" parent="MCqwjviWJ43rbgQTnmE4-79">
          <mxGeometry y="78" width="200" height="26" as="geometry" />
        </mxCell>
        <mxCell id="MCqwjviWJ43rbgQTnmE4-83" value="" style="line;html=1;strokeWidth=1;align=left;verticalAlign=middle;spacingTop=-1;spacingLeft=3;spacingRight=3;rotatable=0;labelPosition=right;points=[];portConstraint=eastwest;" vertex="1" parent="MCqwjviWJ43rbgQTnmE4-79">
          <mxGeometry y="104" width="200" height="14" as="geometry" />
        </mxCell>
        <mxCell id="MCqwjviWJ43rbgQTnmE4-84" value="+ Bulbasaur(Integer seed)" style="text;align=left;verticalAlign=top;spacingLeft=4;spacingRight=4;overflow=hidden;rotatable=0;points=[[0,0.5],[1,0.5]];portConstraint=eastwest;" vertex="1" parent="MCqwjviWJ43rbgQTnmE4-79">
          <mxGeometry y="118" width="200" height="26" as="geometry" />
        </mxCell>
        <mxCell id="MCqwjviWJ43rbgQTnmE4-85" value="- initAttackSkills(): ISkillContainer" style="text;align=left;verticalAlign=top;spacingLeft=4;spacingRight=4;overflow=hidden;rotatable=0;points=[[0,0.5],[1,0.5]];portConstraint=eastwest;" vertex="1" parent="MCqwjviWJ43rbgQTnmE4-79">
          <mxGeometry y="144" width="200" height="26" as="geometry" />
        </mxCell>
        <mxCell id="MCqwjviWJ43rbgQTnmE4-86" value="- initDefenseSkills(): ISkillContainer" style="text;align=left;verticalAlign=top;spacingLeft=4;spacingRight=4;overflow=hidden;rotatable=0;points=[[0,0.5],[1,0.5]];portConstraint=eastwest;" vertex="1" parent="MCqwjviWJ43rbgQTnmE4-79">
          <mxGeometry y="170" width="200" height="26" as="geometry" />
        </mxCell>
        <mxCell id="MCqwjviWJ43rbgQTnmE4-87" value="Charmander" style="swimlane;fontStyle=1;align=center;verticalAlign=top;childLayout=stackLayout;horizontal=1;startSize=26;horizontalStack=0;resizeParent=1;resizeLast=0;collapsible=1;marginBottom=0;rounded=0;shadow=0;strokeWidth=1;" vertex="1" parent="1">
          <mxGeometry x="480" y="-170" width="200" height="200" as="geometry">
            <mxRectangle x="230" y="140" width="160" height="26" as="alternateBounds" />
          </mxGeometry>
        </mxCell>
        <mxCell id="MCqwjviWJ43rbgQTnmE4-88" value="- name: String" style="text;align=left;verticalAlign=top;spacingLeft=4;spacingRight=4;overflow=hidden;rotatable=0;points=[[0,0.5],[1,0.5]];portConstraint=eastwest;" vertex="1" parent="MCqwjviWJ43rbgQTnmE4-87">
          <mxGeometry y="26" width="200" height="26" as="geometry" />
        </mxCell>
        <mxCell id="MCqwjviWJ43rbgQTnmE4-89" value="- attackSkills: ISkillContainer" style="text;align=left;verticalAlign=top;spacingLeft=4;spacingRight=4;overflow=hidden;rotatable=0;points=[[0,0.5],[1,0.5]];portConstraint=eastwest;" vertex="1" parent="MCqwjviWJ43rbgQTnmE4-87">
          <mxGeometry y="52" width="200" height="26" as="geometry" />
        </mxCell>
        <mxCell id="MCqwjviWJ43rbgQTnmE4-90" value="- defendSkills: ISkillContainer" style="text;align=left;verticalAlign=top;spacingLeft=4;spacingRight=4;overflow=hidden;rotatable=0;points=[[0,0.5],[1,0.5]];portConstraint=eastwest;" vertex="1" parent="MCqwjviWJ43rbgQTnmE4-87">
          <mxGeometry y="78" width="200" height="26" as="geometry" />
        </mxCell>
        <mxCell id="MCqwjviWJ43rbgQTnmE4-91" value="" style="line;html=1;strokeWidth=1;align=left;verticalAlign=middle;spacingTop=-1;spacingLeft=3;spacingRight=3;rotatable=0;labelPosition=right;points=[];portConstraint=eastwest;" vertex="1" parent="MCqwjviWJ43rbgQTnmE4-87">
          <mxGeometry y="104" width="200" height="14" as="geometry" />
        </mxCell>
        <mxCell id="MCqwjviWJ43rbgQTnmE4-92" value="+ Charmander(Integer seed)" style="text;align=left;verticalAlign=top;spacingLeft=4;spacingRight=4;overflow=hidden;rotatable=0;points=[[0,0.5],[1,0.5]];portConstraint=eastwest;" vertex="1" parent="MCqwjviWJ43rbgQTnmE4-87">
          <mxGeometry y="118" width="200" height="26" as="geometry" />
        </mxCell>
        <mxCell id="MCqwjviWJ43rbgQTnmE4-93" value="- initAttackSkills(): ISkillContainer" style="text;align=left;verticalAlign=top;spacingLeft=4;spacingRight=4;overflow=hidden;rotatable=0;points=[[0,0.5],[1,0.5]];portConstraint=eastwest;" vertex="1" parent="MCqwjviWJ43rbgQTnmE4-87">
          <mxGeometry y="144" width="200" height="26" as="geometry" />
        </mxCell>
        <mxCell id="MCqwjviWJ43rbgQTnmE4-94" value="- initDefenseSkills(): ISkillContainer" style="text;align=left;verticalAlign=top;spacingLeft=4;spacingRight=4;overflow=hidden;rotatable=0;points=[[0,0.5],[1,0.5]];portConstraint=eastwest;" vertex="1" parent="MCqwjviWJ43rbgQTnmE4-87">
          <mxGeometry y="170" width="200" height="26" as="geometry" />
        </mxCell>
        <mxCell id="MCqwjviWJ43rbgQTnmE4-95" value="Squirtle" style="swimlane;fontStyle=1;align=center;verticalAlign=top;childLayout=stackLayout;horizontal=1;startSize=26;horizontalStack=0;resizeParent=1;resizeLast=0;collapsible=1;marginBottom=0;rounded=0;shadow=0;strokeWidth=1;" vertex="1" parent="1">
          <mxGeometry x="700" y="-170" width="200" height="200" as="geometry">
            <mxRectangle x="230" y="140" width="160" height="26" as="alternateBounds" />
          </mxGeometry>
        </mxCell>
        <mxCell id="MCqwjviWJ43rbgQTnmE4-96" value="- name: String" style="text;align=left;verticalAlign=top;spacingLeft=4;spacingRight=4;overflow=hidden;rotatable=0;points=[[0,0.5],[1,0.5]];portConstraint=eastwest;" vertex="1" parent="MCqwjviWJ43rbgQTnmE4-95">
          <mxGeometry y="26" width="200" height="26" as="geometry" />
        </mxCell>
        <mxCell id="MCqwjviWJ43rbgQTnmE4-97" value="- attackSkills: ISkillContainer" style="text;align=left;verticalAlign=top;spacingLeft=4;spacingRight=4;overflow=hidden;rotatable=0;points=[[0,0.5],[1,0.5]];portConstraint=eastwest;" vertex="1" parent="MCqwjviWJ43rbgQTnmE4-95">
          <mxGeometry y="52" width="200" height="26" as="geometry" />
        </mxCell>
        <mxCell id="MCqwjviWJ43rbgQTnmE4-98" value="- defendSkills: ISkillContainer" style="text;align=left;verticalAlign=top;spacingLeft=4;spacingRight=4;overflow=hidden;rotatable=0;points=[[0,0.5],[1,0.5]];portConstraint=eastwest;" vertex="1" parent="MCqwjviWJ43rbgQTnmE4-95">
          <mxGeometry y="78" width="200" height="26" as="geometry" />
        </mxCell>
        <mxCell id="MCqwjviWJ43rbgQTnmE4-99" value="" style="line;html=1;strokeWidth=1;align=left;verticalAlign=middle;spacingTop=-1;spacingLeft=3;spacingRight=3;rotatable=0;labelPosition=right;points=[];portConstraint=eastwest;" vertex="1" parent="MCqwjviWJ43rbgQTnmE4-95">
          <mxGeometry y="104" width="200" height="14" as="geometry" />
        </mxCell>
        <mxCell id="MCqwjviWJ43rbgQTnmE4-100" value="+ Squirtle(Integer seed)" style="text;align=left;verticalAlign=top;spacingLeft=4;spacingRight=4;overflow=hidden;rotatable=0;points=[[0,0.5],[1,0.5]];portConstraint=eastwest;" vertex="1" parent="MCqwjviWJ43rbgQTnmE4-95">
          <mxGeometry y="118" width="200" height="26" as="geometry" />
        </mxCell>
        <mxCell id="MCqwjviWJ43rbgQTnmE4-101" value="- initAttackSkills(): ISkillContainer" style="text;align=left;verticalAlign=top;spacingLeft=4;spacingRight=4;overflow=hidden;rotatable=0;points=[[0,0.5],[1,0.5]];portConstraint=eastwest;" vertex="1" parent="MCqwjviWJ43rbgQTnmE4-95">
          <mxGeometry y="144" width="200" height="26" as="geometry" />
        </mxCell>
        <mxCell id="MCqwjviWJ43rbgQTnmE4-102" value="- initDefenseSkills(): ISkillContainer" style="text;align=left;verticalAlign=top;spacingLeft=4;spacingRight=4;overflow=hidden;rotatable=0;points=[[0,0.5],[1,0.5]];portConstraint=eastwest;" vertex="1" parent="MCqwjviWJ43rbgQTnmE4-95">
          <mxGeometry y="170" width="200" height="26" as="geometry" />
        </mxCell>
        <mxCell id="MCqwjviWJ43rbgQTnmE4-105" value="" style="endArrow=block;endSize=8;endFill=0;html=1;rounded=0;" edge="1" parent="1">
          <mxGeometry x="-0.25" y="20" width="160" relative="1" as="geometry">
            <mxPoint x="140" y="30" as="sourcePoint" />
            <mxPoint x="280" y="101" as="targetPoint" />
            <Array as="points">
              <mxPoint x="140" y="50" />
              <mxPoint x="280" y="50" />
            </Array>
            <mxPoint as="offset" />
          </mxGeometry>
        </mxCell>
        <mxCell id="MCqwjviWJ43rbgQTnmE4-107" style="edgeStyle=orthogonalEdgeStyle;rounded=0;orthogonalLoop=1;jettySize=auto;html=1;endArrow=none;endFill=0;entryX=0.5;entryY=1;entryDx=0;entryDy=0;" edge="1" parent="1" target="MCqwjviWJ43rbgQTnmE4-87">
          <mxGeometry relative="1" as="geometry">
            <mxPoint x="280" y="60" as="targetPoint" />
            <mxPoint x="360" y="50" as="sourcePoint" />
          </mxGeometry>
        </mxCell>
        <mxCell id="MCqwjviWJ43rbgQTnmE4-108" style="edgeStyle=orthogonalEdgeStyle;rounded=0;orthogonalLoop=1;jettySize=auto;html=1;endArrow=none;endFill=0;entryX=0.5;entryY=1;entryDx=0;entryDy=0;" edge="1" parent="1">
          <mxGeometry relative="1" as="geometry">
            <mxPoint x="799.5" y="30" as="targetPoint" />
            <mxPoint x="579.5" y="50" as="sourcePoint" />
          </mxGeometry>
        </mxCell>
        <mxCell id="MCqwjviWJ43rbgQTnmE4-109" value="PokemonRepo" style="swimlane;fontStyle=1;align=center;verticalAlign=top;childLayout=stackLayout;horizontal=1;startSize=26;horizontalStack=0;resizeParent=1;resizeParentMax=0;resizeLast=0;collapsible=1;marginBottom=0;whiteSpace=wrap;html=1;" vertex="1" parent="1">
          <mxGeometry x="100" y="550" width="240" height="86" as="geometry" />
        </mxCell>
        <mxCell id="MCqwjviWJ43rbgQTnmE4-110" value="- pokemonMap: Map&amp;lt;String, Pokemon&amp;gt;" style="text;strokeColor=none;fillColor=none;align=left;verticalAlign=top;spacingLeft=4;spacingRight=4;overflow=hidden;rotatable=0;points=[[0,0.5],[1,0.5]];portConstraint=eastwest;whiteSpace=wrap;html=1;" vertex="1" parent="MCqwjviWJ43rbgQTnmE4-109">
          <mxGeometry y="26" width="240" height="26" as="geometry" />
        </mxCell>
        <mxCell id="MCqwjviWJ43rbgQTnmE4-111" value="" style="line;strokeWidth=1;fillColor=none;align=left;verticalAlign=middle;spacingTop=-1;spacingLeft=3;spacingRight=3;rotatable=0;labelPosition=right;points=[];portConstraint=eastwest;strokeColor=inherit;" vertex="1" parent="MCqwjviWJ43rbgQTnmE4-109">
          <mxGeometry y="52" width="240" height="8" as="geometry" />
        </mxCell>
        <mxCell id="MCqwjviWJ43rbgQTnmE4-112" value="+ printPokemon(): void" style="text;strokeColor=none;fillColor=none;align=left;verticalAlign=top;spacingLeft=4;spacingRight=4;overflow=hidden;rotatable=0;points=[[0,0.5],[1,0.5]];portConstraint=eastwest;whiteSpace=wrap;html=1;" vertex="1" parent="MCqwjviWJ43rbgQTnmE4-109">
          <mxGeometry y="60" width="240" height="26" as="geometry" />
        </mxCell>
        <mxCell id="MCqwjviWJ43rbgQTnmE4-113" value="" style="endArrow=none;endFill=0;endSize=8;html=1;rounded=0;entryX=0.453;entryY=0.988;entryDx=0;entryDy=0;entryPerimeter=0;" edge="1" parent="1" target="GpoWLLTxSxqn1S8ftEsB-49">
          <mxGeometry width="160" relative="1" as="geometry">
            <mxPoint x="120" y="890" as="sourcePoint" />
            <mxPoint x="180" y="836" as="targetPoint" />
            <Array as="points">
              <mxPoint x="120" y="836" />
            </Array>
          </mxGeometry>
        </mxCell>
        <mxCell id="MCqwjviWJ43rbgQTnmE4-114" value="instantiates" style="edgeLabel;html=1;align=center;verticalAlign=middle;resizable=0;points=[];" vertex="1" connectable="0" parent="MCqwjviWJ43rbgQTnmE4-113">
          <mxGeometry x="-0.0857" y="2" relative="1" as="geometry">
            <mxPoint x="1" as="offset" />
          </mxGeometry>
        </mxCell>
        <mxCell id="MCqwjviWJ43rbgQTnmE4-115" value="&lt;font style=&quot;&quot;&gt;&lt;b style=&quot;font-size: 25px;&quot;&gt;Assignment#2 CS 6310 Spring 2024&lt;/b&gt;&lt;br&gt;&lt;font style=&quot;font-size: 20px;&quot;&gt;Class Model Diagram&lt;br&gt;&lt;/font&gt;&lt;font style=&quot;font-size: 18px;&quot;&gt;Group 59&lt;/font&gt;&lt;br&gt;&lt;/font&gt;" style="text;html=1;align=center;verticalAlign=middle;resizable=0;points=[];autosize=1;strokeColor=none;fillColor=none;fontSize=25;" vertex="1" parent="1">
          <mxGeometry x="160" y="-285" width="450" height="100" as="geometry" />
        </mxCell>
        <mxCell id="MCqwjviWJ43rbgQTnmE4-116" value="" style="endArrow=none;endFill=0;endSize=8;html=1;rounded=0;" edge="1" parent="1">
          <mxGeometry width="160" relative="1" as="geometry">
            <mxPoint x="50" y="930" as="sourcePoint" />
            <mxPoint x="40" y="1160" as="targetPoint" />
            <Array as="points">
              <mxPoint x="20" y="930" />
              <mxPoint x="20" y="990" />
              <mxPoint x="20" y="1080" />
              <mxPoint x="20" y="1120" />
              <mxPoint x="20" y="1160" />
            </Array>
          </mxGeometry>
        </mxCell>
        <mxCell id="MCqwjviWJ43rbgQTnmE4-117" value="instantiates" style="edgeLabel;html=1;align=center;verticalAlign=middle;resizable=0;points=[];" vertex="1" connectable="0" parent="MCqwjviWJ43rbgQTnmE4-116">
          <mxGeometry x="-0.0857" y="2" relative="1" as="geometry">
            <mxPoint x="1" as="offset" />
          </mxGeometry>
        </mxCell>
      </root>
    </mxGraphModel>
  </diagram>
</mxfile>
